# xmcd CD database file
#
# Track frame offsets:
#	150
#	21386
#	39727
#	61489
#	81559
#	96481
#	112319
#	129135
#	152159
#	168457
#	186428
#
# Disc length: 2729 seconds
#
# Revision: 0
# Processed by: cddbd v1.5.1PL0 Copyright (c) Steve Scherf et al.
# Submitted via: CDex 1.40Beta9
#
DISCID=a10aa70b
DTITLE=Blues Company - Barmok Bolygólya
DYEAR=2005
DGENRE=Blues
TTITLE0=Barmok bolygólya
TTITLE1=Ez csak egy dal
TTITLE2=Favilla, fakanál
TTITLE3=Harmadik emelet
TTITLE4=Déli busz
TTITLE5=Még áll a bál
TTITLE6=Magyar égen magyar isten
TTITLE7=Lõre
TTITLE8=Drakula
TTITLE9=Toszka motoszka
TTITLE10=Tanít az utca
EXTD=YEAR: 2005 ID3G: 0
EXTT0=
EXTT1=
EXTT2=
EXTT3=
EXTT4=
EXTT5=
EXTT6=
EXTT7=
EXTT8=
EXTT9=
EXTT10=
PLAYORDER=
